<svg xmlns="http://www.w3.org/2000/svg" xmlns:xlink="http://www.w3.org/1999/xlink" id="Layer_1" x="0px" y="0px" viewBox="0 0 18 18" style="enable-background:new 0 0 18 18;" xml:space="preserve"><style type="text/css">	.st0{fill-rule:evenodd;clip-rule:evenodd;}</style><path class="st0" d="M0.3,0.3c0.4-0.4,1-0.4,1.4,0L9,7.6l7.3-7.3c0.4-0.4,1-0.4,1.4,0c0.4,0.4,0.4,1,0,1.4L10.4,9l7.3,7.3 c0.4,0.4,0.4,1,0,1.4C17.5,17.9,17.3,18,17,18c-0.2,0-0.5-0.1-0.7-0.3L9,10.4l-7.3,7.3C1.5,17.9,1.2,18,1,18c-0.2,0-0.5-0.1-0.7-0.3 c-0.4-0.4-0.4-1,0-1.4L7.6,9L0.3,1.7C-0.1,1.3-0.1,0.7,0.3,0.3z"></path></svg>