<svg xmlns="http://www.w3.org/2000/svg" width="237" height="40" viewBox="0 0 237 40" fill="none"><path d="M2.68275 32V8.16H6.45875V18.656H17.4988V8.16H21.2428V32H17.4988V22.016H6.45875V32H2.68275ZM30.0148 32.384C28.8414 32.384 27.8068 32.1813 26.9108 31.776C26.0361 31.3493 25.3534 30.7733 24.8628 30.048C24.3721 29.3013 24.1268 28.4267 24.1268 27.424C24.1268 26.4853 24.3294 25.6427 24.7348 24.896C25.1614 24.1493 25.8121 23.52 26.6868 23.008C27.5614 22.496 28.6601 22.1333 29.9828 21.92L35.9988 20.928V23.776L30.6868 24.704C29.7268 24.8747 29.0228 25.184 28.5748 25.632C28.1268 26.0587 27.9028 26.6133 27.9028 27.296C27.9028 27.9573 28.1481 28.5013 28.6388 28.928C29.1508 29.3333 29.8014 29.536 30.5908 29.536C31.5721 29.536 32.4254 29.3227 33.1508 28.896C33.8974 28.4693 34.4734 27.904 34.8788 27.2C35.2841 26.4747 35.4868 25.6747 35.4868 24.8V20.352C35.4868 19.4987 35.1668 18.8053 34.5268 18.272C33.9081 17.7173 33.0761 17.44 32.0308 17.44C31.0708 17.44 30.2281 17.696 29.5028 18.208C28.7988 18.6987 28.2761 19.3387 27.9348 20.128L24.9268 18.624C25.2468 17.7707 25.7694 17.024 26.4948 16.384C27.2201 15.7227 28.0628 15.2107 29.0228 14.848C30.0041 14.4853 31.0388 14.304 32.1267 14.304C33.4921 14.304 34.6974 14.56 35.7428 15.072C36.8094 15.584 37.6308 16.2987 38.2068 17.216C38.8041 18.112 39.1028 19.1573 39.1028 20.352V32H35.6468V28.864L36.3828 28.96C35.9774 29.664 35.4548 30.272 34.8148 30.784C34.1961 31.296 33.4814 31.6907 32.6708 31.968C31.8814 32.2453 30.9961 32.384 30.0148 32.384ZM42.3307 32V14.688H45.7868V18.176L45.4668 17.664C45.8508 16.5333 46.4694 15.7227 47.3228 15.232C48.1761 14.72 49.2001 14.464 50.3948 14.464H51.4508V17.76H49.9468C48.7521 17.76 47.7814 18.1333 47.0348 18.88C46.3094 19.6053 45.9468 20.6507 45.9468 22.016V32H42.3307ZM52.9245 32V14.688H56.3805V18.432L55.9325 17.856C56.2952 16.6827 56.9565 15.7973 57.9165 15.2C58.8765 14.6027 59.9752 14.304 61.2125 14.304C62.5992 14.304 63.8258 14.6773 64.8925 15.424C65.9805 16.1493 66.7058 17.12 67.0685 18.336L66.0445 18.432C66.5565 17.0453 67.3352 16.0107 68.3805 15.328C69.4472 14.6453 70.6632 14.304 72.0285 14.304C73.2232 14.304 74.3005 14.5813 75.2605 15.136C76.2418 15.6907 77.0205 16.4587 77.5965 17.44C78.1725 18.4213 78.4605 19.5413 78.4605 20.8V32H74.8445V21.792C74.8445 20.9173 74.6845 20.1813 74.3645 19.584C74.0658 18.9653 73.6392 18.496 73.0845 18.176C72.5512 17.8347 71.9218 17.664 71.1965 17.664C70.4712 17.664 69.8312 17.8347 69.2765 18.176C68.7218 18.496 68.2845 18.9653 67.9645 19.584C67.6445 20.2027 67.4845 20.9387 67.4845 21.792V32H63.9005V21.792C63.9005 20.9173 63.7405 20.1813 63.4205 19.584C63.1218 18.9653 62.6952 18.496 62.1405 18.176C61.6072 17.8347 60.9672 17.664 60.2205 17.664C59.4952 17.664 58.8552 17.8347 58.3005 18.176C57.7458 18.496 57.3085 18.9653 56.9885 19.584C56.6898 20.2027 56.5405 20.9387 56.5405 21.792V32H52.9245ZM89.6828 32.384C88.0188 32.384 86.4934 31.9893 85.1068 31.2C83.7414 30.4107 82.6534 29.3333 81.8428 27.968C81.0321 26.6027 80.6268 25.056 80.6268 23.328C80.6268 21.5787 81.0321 20.032 81.8428 18.688C82.6534 17.3227 83.7414 16.256 85.1068 15.488C86.4721 14.6987 87.9974 14.304 89.6828 14.304C91.3894 14.304 92.9148 14.6987 94.2588 15.488C95.6241 16.256 96.7014 17.3227 97.4908 18.688C98.3014 20.032 98.7068 21.5787 98.7068 23.328C98.7068 25.0773 98.3014 26.6347 97.4908 28C96.6801 29.3653 95.5921 30.4427 94.2268 31.232C92.8614 32 91.3468 32.384 89.6828 32.384ZM89.6828 29.024C90.7068 29.024 91.6134 28.7787 92.4028 28.288C93.1921 27.7973 93.8108 27.1253 94.2588 26.272C94.7281 25.3973 94.9628 24.416 94.9628 23.328C94.9628 22.24 94.7281 21.2693 94.2588 20.416C93.8108 19.5627 93.1921 18.8907 92.4028 18.4C91.6134 17.9093 90.7068 17.664 89.6828 17.664C88.6801 17.664 87.7734 17.9093 86.9628 18.4C86.1734 18.8907 85.5441 19.5627 85.0748 20.416C84.6268 21.2693 84.4028 22.24 84.4028 23.328C84.4028 24.416 84.6268 25.3973 85.0748 26.272C85.5441 27.1253 86.1734 27.7973 86.9628 28.288C87.7734 28.7787 88.6801 29.024 89.6828 29.024ZM101.237 32V14.688H104.693V18.08L104.277 17.632C104.704 16.544 105.386 15.7227 106.325 15.168C107.264 14.592 108.352 14.304 109.589 14.304C110.869 14.304 112 14.5813 112.981 15.136C113.962 15.6907 114.73 16.4587 115.285 17.44C115.84 18.4213 116.117 19.552 116.117 20.832V32H112.533V21.792C112.533 20.9173 112.373 20.1813 112.053 19.584C111.733 18.9653 111.274 18.496 110.677 18.176C110.101 17.8347 109.44 17.664 108.693 17.664C107.946 17.664 107.274 17.8347 106.677 18.176C106.101 18.496 105.653 18.9653 105.333 19.584C105.013 20.2027 104.853 20.9387 104.853 21.792V32H101.237ZM120.211 39.04C119.784 39.04 119.357 38.9973 118.931 38.912C118.525 38.848 118.152 38.7413 117.811 38.592V35.488C118.067 35.552 118.376 35.6053 118.739 35.648C119.101 35.712 119.453 35.744 119.795 35.744C120.797 35.744 121.533 35.52 122.003 35.072C122.493 34.6453 122.931 33.984 123.315 33.088L124.467 30.464L124.403 33.504L116.915 14.688H120.786L126.323 29.12H125.01L130.515 14.688H134.419L126.771 33.888C126.365 34.912 125.853 35.808 125.235 36.576C124.637 37.3653 123.923 37.9733 123.091 38.4C122.28 38.8267 121.32 39.04 120.211 39.04Z" fill="white"></path><path d="M149.94 29.8573C148.073 28.2922 146.169 26.859 144.453 25.2184C141.36 22.2766 139.022 18.8256 138.003 14.6015C137.419 12.15 137.438 9.73626 138.437 7.37906C140.455 2.64579 146.357 1.21261 150.355 4.45612C152.033 5.83273 153.127 7.62421 154.032 9.54768C154.108 9.73626 154.202 9.90598 154.296 10.1323C154.937 9.2271 155.503 8.34079 156.144 7.52992C157.879 5.38015 159.991 3.75839 162.801 3.36238C165.385 3.00409 167.855 3.38124 169.91 5.17271C171.853 6.8699 172.249 9.11396 171.872 11.5277C171.325 15.073 169.42 17.977 167.119 20.6171C163.876 24.3509 160.01 27.2927 155.673 29.6688C155.503 29.7631 155.333 29.8762 155.032 30.0648C156.295 30.6494 157.445 31.2151 158.615 31.7242C159.708 32.1957 160.821 32.6106 161.934 33.0631C162.726 33.3837 163.065 33.9494 162.82 34.5906C162.594 35.2129 161.896 35.4769 161.142 35.1563C158.445 33.9683 155.748 32.7614 153.052 31.5357C152.656 31.3471 152.354 31.3094 151.958 31.4791C147.64 33.3271 143.151 34.4209 138.437 34.534C137.683 34.5529 136.928 34.5152 136.174 34.4775C135.382 34.4397 134.948 33.9683 135.005 33.2517C135.043 32.5917 135.514 32.1957 136.287 32.2334C140.7 32.4597 144.962 31.6677 149.11 30.1968C149.431 30.0648 149.714 29.9328 149.94 29.8573ZM169.76 10.3397C169.76 8.00136 168.703 6.54932 166.686 5.8893C163.895 4.98414 161.424 5.58758 159.275 7.51106C157.408 9.15167 156.182 11.2449 155.277 13.5266C155.051 14.0924 154.692 14.4884 154.051 14.4318C153.429 14.3941 153.146 13.9792 152.995 13.4135C152.807 12.7723 152.618 12.1312 152.392 11.5089C151.618 9.52882 150.638 7.68078 148.997 6.2476C146.187 3.77725 141.586 4.92756 140.379 8.54823C139.946 9.83055 139.795 11.1317 139.946 12.4895C140.191 14.8467 141.039 16.9776 142.284 18.9576C144.811 23.012 148.375 25.9727 152.392 28.4242C152.58 28.5373 152.976 28.4996 153.184 28.3864C155.371 27.0664 157.634 25.8218 159.727 24.3321C162.914 22.0503 165.705 19.3159 167.798 15.9404C168.854 14.1678 169.665 12.2632 169.76 10.3397Z" fill="#EDDDB3"></path><path d="M185.2 8.088C186.394 8.088 187.504 8.248 188.528 8.568C189.573 8.888 190.565 9.368 191.504 10.008H191.536L191.472 8.28H193.2L192.816 15.672H191.664C191.557 13.6667 190.938 12.12 189.808 11.032C188.677 9.944 187.184 9.4 185.328 9.4C184.197 9.4 183.12 9.64533 182.096 10.136C181.093 10.6053 180.186 11.288 179.376 12.184C178.586 13.08 177.946 14.1573 177.456 15.416C176.986 16.6747 176.709 18.0933 176.624 19.672C176.517 21.6773 176.805 23.448 177.488 24.984C178.192 26.52 179.162 27.7147 180.4 28.568C181.658 29.4213 183.077 29.848 184.656 29.848C186.042 29.848 187.418 29.5493 188.784 28.952C190.149 28.3333 191.29 27.4373 192.208 26.264L193.008 26.936C192.026 28.1733 190.981 29.1227 189.872 29.784C188.762 30.4453 187.674 30.8933 186.608 31.128C185.562 31.384 184.602 31.512 183.728 31.512C182.128 31.512 180.688 31.224 179.408 30.648C178.128 30.072 177.04 29.272 176.144 28.248C175.248 27.2027 174.576 25.9973 174.128 24.632C173.701 23.2453 173.53 21.752 173.616 20.152C173.701 18.6373 174 17.1653 174.512 15.736C175.024 14.3067 175.76 13.016 176.72 11.864C177.68 10.712 178.864 9.79467 180.272 9.112C181.701 8.42933 183.344 8.088 185.2 8.088ZM203.481 14.648C204.121 14.648 204.825 14.7013 205.593 14.808C206.361 14.8933 207.086 15.0213 207.769 15.192C207.598 16.472 207.428 17.752 207.257 19.032C207.108 20.2907 206.958 21.496 206.809 22.648C206.681 23.7787 206.574 24.8027 206.489 25.72C206.404 26.616 206.361 27.32 206.361 27.832C206.361 28.2587 206.393 28.6853 206.457 29.112C206.521 29.5387 206.788 29.752 207.257 29.752C207.62 29.752 208.014 29.5173 208.441 29.048C208.889 28.5787 209.273 27.7787 209.593 26.648L210.489 26.84C210.425 27.224 210.286 27.672 210.073 28.184C209.881 28.6747 209.614 29.1653 209.273 29.656C208.932 30.1467 208.516 30.552 208.025 30.872C207.534 31.192 206.969 31.352 206.329 31.352C205.476 31.352 204.868 31.0853 204.505 30.552C204.142 30.0187 203.961 29.3253 203.961 28.472C203.961 27.8533 204.014 27.1813 204.121 26.456C204.249 25.7307 204.388 24.9733 204.537 24.184H204.441C203.929 25.7627 203.396 27.032 202.841 27.992C202.308 28.9307 201.764 29.6453 201.209 30.136C200.676 30.6267 200.153 30.9467 199.641 31.096C199.129 31.2667 198.649 31.352 198.201 31.352C197.049 31.352 196.078 30.9253 195.289 30.072C194.521 29.2187 194.137 27.7893 194.137 25.784C194.137 24.2907 194.329 22.872 194.713 21.528C195.097 20.184 195.673 19 196.441 17.976C197.23 16.9307 198.212 16.12 199.385 15.544C200.558 14.9467 201.924 14.648 203.481 14.648ZM202.489 15.8C201.529 15.8 200.686 16.0667 199.961 16.6C199.257 17.1333 198.67 17.8587 198.201 18.776C197.732 19.672 197.38 20.6853 197.145 21.816C196.932 22.9253 196.825 24.0667 196.825 25.24C196.825 26.6053 196.974 27.736 197.273 28.632C197.572 29.5067 198.116 29.944 198.905 29.944C199.481 29.944 200.057 29.656 200.633 29.08C201.23 28.504 201.785 27.736 202.297 26.776C202.809 25.7947 203.268 24.7067 203.673 23.512C204.078 22.296 204.398 21.0587 204.633 19.8C204.868 18.5413 204.985 17.336 204.985 16.184C204.665 16.056 204.292 15.96 203.865 15.896C203.438 15.832 202.98 15.8 202.489 15.8ZM212.716 31C212.695 30.8507 212.684 30.7227 212.684 30.616C212.684 30.488 212.684 30.3387 212.684 30.168C212.684 29.8053 212.695 29.3787 212.716 28.888C212.738 28.376 212.78 27.704 212.844 26.872C212.93 26.04 213.047 24.952 213.196 23.608C213.346 22.2213 213.463 21.176 213.548 20.472C213.634 19.768 213.698 19.256 213.74 18.936C213.783 18.5947 213.804 18.3173 213.804 18.104C213.826 17.6773 213.794 17.2613 213.708 16.856C213.644 16.4507 213.388 16.248 212.94 16.248C212.599 16.248 212.204 16.4827 211.756 16.952C211.308 17.4213 210.924 18.2213 210.604 19.352L209.708 19.16C209.772 18.776 209.9 18.3387 210.092 17.848C210.306 17.336 210.583 16.8347 210.924 16.344C211.266 15.8533 211.682 15.448 212.172 15.128C212.663 14.808 213.228 14.648 213.868 14.648C214.828 14.648 215.468 14.9787 215.788 15.64C216.108 16.3013 216.247 17.1867 216.204 18.296C216.183 18.7653 216.119 19.288 216.012 19.864C215.927 20.4187 215.831 21.0053 215.724 21.624H215.82C216.439 19.768 217.079 18.3387 217.74 17.336C218.423 16.3333 219.106 15.64 219.788 15.256C220.492 14.8507 221.186 14.648 221.868 14.648C222.508 14.648 223.042 14.8187 223.468 15.16C223.895 15.48 224.108 15.928 224.108 16.504C224.108 16.888 223.97 17.24 223.692 17.56C223.436 17.88 223.084 18.04 222.636 18.04C222.252 18.04 221.922 17.9227 221.644 17.688C221.367 17.4533 221.207 17.1227 221.164 16.696C220.567 16.568 219.98 16.76 219.404 17.272C218.85 17.784 218.316 18.52 217.804 19.48C217.314 20.4187 216.876 21.4747 216.492 22.648C216.13 23.8213 215.842 25.016 215.628 26.232C215.415 27.448 215.308 28.5787 215.308 29.624C215.308 29.944 215.308 30.1893 215.308 30.36C215.33 30.5093 215.351 30.7227 215.372 31H212.716ZM231.758 14.648C232.526 14.648 233.252 14.7653 233.934 15C234.617 15.2347 235.172 15.6187 235.598 16.152C236.025 16.6853 236.238 17.4107 236.238 18.328C236.238 19.2027 235.94 19.96 235.342 20.6C234.745 21.24 233.966 21.7733 233.006 22.2C232.046 22.6053 231.022 22.936 229.934 23.192C228.846 23.448 227.801 23.6293 226.798 23.736C226.798 25.0587 226.926 26.168 227.182 27.064C227.46 27.96 227.865 28.632 228.398 29.08C228.932 29.528 229.614 29.752 230.446 29.752C231.065 29.752 231.684 29.6133 232.302 29.336C232.942 29.0587 233.55 28.6427 234.126 28.088C234.702 27.512 235.225 26.776 235.694 25.88L236.75 26.488C236.153 27.5973 235.513 28.5147 234.83 29.24C234.148 29.9653 233.401 30.4987 232.59 30.84C231.78 31.1813 230.884 31.352 229.902 31.352C227.876 31.352 226.382 30.7227 225.422 29.464C224.462 28.184 223.982 26.5093 223.982 24.44C223.982 23.2027 224.142 21.9973 224.462 20.824C224.782 19.6507 225.262 18.6053 225.902 17.688C226.542 16.7493 227.353 16.0133 228.334 15.48C229.316 14.9253 230.457 14.648 231.758 14.648ZM231.31 15.736C230.329 15.736 229.518 16.0667 228.878 16.728C228.26 17.3893 227.78 18.2427 227.438 19.288C227.118 20.3333 226.916 21.432 226.83 22.584C227.961 22.4347 229.038 22.168 230.062 21.784C231.086 21.4 231.929 20.9093 232.59 20.312C233.252 19.6933 233.582 18.9787 233.582 18.168C233.582 17.4853 233.39 16.9093 233.006 16.44C232.644 15.9707 232.078 15.736 231.31 15.736Z" fill="white"></path></svg>