<svg xmlns="http://www.w3.org/2000/svg" xmlns:xlink="http://www.w3.org/1999/xlink" id="Layer_1" x="0px" y="0px" viewBox="0 0 48 48" style="enable-background:new 0 0 48 48;" xml:space="preserve"><style type="text/css">	.st0{opacity:0.5;enable-background:new    ;}	.st1{opacity:0.7;enable-background:new    ;}	.st2{opacity:0.3;enable-background:new    ;}	.st3{opacity:0.8;enable-background:new    ;}	.st4{opacity:0.4;enable-background:new    ;}	.st5{opacity:0.6;enable-background:new    ;}	.st6{opacity:0.2;enable-background:new    ;}</style><path d="M24,0L24,0c1.1,0,2,0.9,2,2v8c0,1.1-0.9,2-2,2l0,0c-1.1,0-2-0.9-2-2V2C22,0.9,22.9,0,24,0z"></path><path class="st0" d="M24,36L24,36c1.1,0,2,0.9,2,2v8c0,1.1-0.9,2-2,2l0,0c-1.1,0-2-0.9-2-2v-8C22,36.9,22.9,36,24,36z"></path><path class="st1" d="M0,24L0,24c0-1.1,0.9-2,2-2h8c1.1,0,2,0.9,2,2l0,0c0,1.1-0.9,2-2,2H2C0.9,26,0,25.1,0,24z"></path><path class="st2" d="M36,24L36,24c0-1.1,0.9-2,2-2h8c1.1,0,2,0.9,2,2l0,0c0,1.1-0.9,2-2,2h-8C36.9,26,36,25.1,36,24z"></path><path class="st3" d="M7,7L7,7c0.8-0.8,2-0.8,2.8,0l5.7,5.7c0.8,0.8,0.8,2,0,2.8l0,0c-0.8,0.8-2,0.8-2.8,0L7,9.9C6.2,9.1,6.2,7.8,7,7 z"></path><path class="st4" d="M32.5,32.5L32.5,32.5c0.8-0.8,2-0.8,2.8,0l5.7,5.7c0.8,0.8,0.8,2,0,2.8l0,0c-0.8,0.8-2,0.8-2.8,0l-5.7-5.7 C31.7,34.5,31.7,33.3,32.5,32.5z"></path><path class="st5" d="M7,41L7,41c-0.8-0.8-0.8-2,0-2.8l5.7-5.7c0.8-0.8,2-0.8,2.8,0l0,0c0.8,0.8,0.8,2,0,2.8L9.9,41 C9.1,41.8,7.8,41.8,7,41z"></path><path class="st6" d="M32.5,15.5L32.5,15.5c-0.8-0.8-0.8-2,0-2.8L38.1,7c0.8-0.8,2-0.8,2.8,0l0,0c0.8,0.8,0.8,2,0,2.8l-5.7,5.7 C34.5,16.3,33.3,16.3,32.5,15.5z"></path></svg>